<svg xmlns="http://www.w3.org/2000/svg" viewBox="0 0 784.26 180.31"><defs><style>.cls-1{fill:#fff;}</style></defs><title>logo_white</title><g id="Layer_2" data-name="Layer 2"><g id="Layer_1-2" data-name="Layer 1"><path class="cls-1" d="M41.15,101.38Q51,100,56.72,103.46a21.73,21.73,0,0,1,8.67,10.26,60.42,60.42,0,0,1,4.17,15.37l5,35a8.32,8.32,0,0,1-1.46,6.28,8.52,8.52,0,0,1-11.76,1.7,8.26,8.26,0,0,1-3.18-5.61l-5-35a28.55,28.55,0,0,0-2.27-8,11.29,11.29,0,0,0-4.8-5.24q-3.18-1.77-8.51-1A17.3,17.3,0,0,0,29,120.7a14.32,14.32,0,0,0-4.7,6.61,17.91,17.91,0,0,0-.67,8.4l5,35A8.23,8.23,0,0,1,27.22,177a7.93,7.93,0,0,1-5.53,3.24,7.92,7.92,0,0,1-6.22-1.54,8.28,8.28,0,0,1-3.19-5.61L.11,88.6a8.24,8.24,0,0,1,1.46-6.28A8,8,0,0,1,7.1,79.08a7.94,7.94,0,0,1,6.22,1.55,8.26,8.26,0,0,1,3.18,5.61l4.89,33.89L19.28,120a31.34,31.34,0,0,1,2.7-5.49,30.05,30.05,0,0,1,4.61-5.75A28.8,28.8,0,0,1,33,104,23.77,23.77,0,0,1,41.15,101.38Z"/><path class="cls-1" d="M159.23,123.13a38.77,38.77,0,0,1-2.14,20.47,36,36,0,0,1-11.47,15.25A39.66,39.66,0,0,1,108,164.27a36.16,36.16,0,0,1-15.31-11.39,38.82,38.82,0,0,1-7.84-19A38.87,38.87,0,0,1,87,113.38,36.8,36.8,0,0,1,98.49,98.06a39.22,39.22,0,0,1,37.58-5.42A36.8,36.8,0,0,1,151.4,104.1,38.85,38.85,0,0,1,159.23,123.13Zm-16.39,2.36a25.14,25.14,0,0,0-4.55-11.69,21.12,21.12,0,0,0-8.67-6.91,20.69,20.69,0,0,0-20.91,3,20.94,20.94,0,0,0-6.36,9.08,27.46,27.46,0,0,0,3.47,24,21,21,0,0,0,8.67,6.91,20.7,20.7,0,0,0,20.9-3,21.16,21.16,0,0,0,6.37-9.08A25,25,0,0,0,142.84,125.49Z"/><path class="cls-1" d="M206.51,77.53q10.92-1.57,16.88,2.94a26.17,26.17,0,0,1,8.79,12.61l-2.5-.89.78-2.35A32.93,32.93,0,0,1,241.92,75a23.42,23.42,0,0,1,10.5-4.09Q262.26,69.48,268,73a21.71,21.71,0,0,1,8.66,10.26,60,60,0,0,1,4.17,15.37l5.05,35a8.26,8.26,0,0,1-1.47,6.27,8.5,8.5,0,0,1-11.75,1.7,8.26,8.26,0,0,1-3.18-5.61l-5.05-35a28.55,28.55,0,0,0-2.26-8,11.33,11.33,0,0,0-4.8-5.24q-3.19-1.77-8.52-1a17.35,17.35,0,0,0-8.57,3.47,14.22,14.22,0,0,0-4.69,6.6,17.92,17.92,0,0,0-.68,8.4l5.05,35a8.29,8.29,0,0,1-1.47,6.28,8.51,8.51,0,0,1-11.75,1.69,8.26,8.26,0,0,1-3.18-5.61l-5.05-35a28.19,28.19,0,0,0-2.26-8,11.26,11.26,0,0,0-4.8-5.23q-3.18-1.77-8.52-1a17.31,17.31,0,0,0-8.56,3.47,14.27,14.27,0,0,0-4.7,6.61,17.75,17.75,0,0,0-.67,8.39l5,35a8.32,8.32,0,0,1-1.46,6.28,8.5,8.5,0,0,1-11.76,1.69,8.26,8.26,0,0,1-3.18-5.61L169.5,92.77A8.29,8.29,0,0,1,171,86.49a8.49,8.49,0,0,1,11.75-1.69,8.26,8.26,0,0,1,3.18,5.61l.85,5.87-2.11-.11a31.28,31.28,0,0,1,2.7-5.48A29.8,29.8,0,0,1,192,84.93a28.46,28.46,0,0,1,6.43-4.76A23.57,23.57,0,0,1,206.51,77.53Z"/><path class="cls-1" d="M339.48,135.78q-11.61,1.68-20.86-1.95a33.83,33.83,0,0,1-15-11.29,39,39,0,0,1-7.3-18.2q-1.77-12.3,2-21.7a35.62,35.62,0,0,1,11.13-15.2,34,34,0,0,1,16.41-7.11,31.49,31.49,0,0,1,13.6,1,36.5,36.5,0,0,1,12.14,6.28A38.72,38.72,0,0,1,360.8,78a35.62,35.62,0,0,1,4.81,13.54,7.1,7.1,0,0,1-1.83,5.7,8.82,8.82,0,0,1-5.44,2.88l-52.21,7.53-6.07-13.08,50.16-7.23-2.62,3.16-.53-3.68a12.6,12.6,0,0,0-3.83-6.71,18.47,18.47,0,0,0-7-4.08,18,18,0,0,0-8.26-.69,26.08,26.08,0,0,0-7.5,2.2,14.82,14.82,0,0,0-5.62,4.57,18.07,18.07,0,0,0-3.09,7.56,35.08,35.08,0,0,0,.09,11.29A24.16,24.16,0,0,0,316.74,113a21.2,21.2,0,0,0,19.75,7.82,31.76,31.76,0,0,0,7.95-2A18.28,18.28,0,0,0,349,116.2c1.12-1,2.14-1.77,3.07-2.46a10.49,10.49,0,0,1,4.46-1.9,7,7,0,0,1,8,5.82q.52,3.69-2.86,7.25a31.89,31.89,0,0,1-9.22,6.7A40.24,40.24,0,0,1,339.48,135.78Z"/><path class="cls-1" d="M413.14,47.73q10.92-1.57,16.88,2.94a26.17,26.17,0,0,1,8.79,12.61l-2.5-.89.78-2.35a31.54,31.54,0,0,1,4.08-7.49,31.18,31.18,0,0,1,7.38-7.34,23.43,23.43,0,0,1,10.5-4.1q9.84-1.41,15.58,2.08a21.71,21.71,0,0,1,8.66,10.26,60.42,60.42,0,0,1,4.17,15.37l5.05,35a8.29,8.29,0,0,1-1.47,6.28,8.49,8.49,0,0,1-11.75,1.69,8.26,8.26,0,0,1-3.18-5.61l-5.05-35a28.52,28.52,0,0,0-2.26-8A11.31,11.31,0,0,0,464,58q-3.19-1.77-8.52-1a17.35,17.35,0,0,0-8.57,3.47,14.25,14.25,0,0,0-4.69,6.61,17.88,17.88,0,0,0-.68,8.39l5,35a8.29,8.29,0,0,1-1.47,6.28,8.49,8.49,0,0,1-11.75,1.69,8.26,8.26,0,0,1-3.18-5.61l-5.05-35a28.12,28.12,0,0,0-2.26-8,11.29,11.29,0,0,0-4.8-5.24q-3.18-1.77-8.52-1A17.31,17.31,0,0,0,401,67.06a14.27,14.27,0,0,0-4.7,6.61,17.78,17.78,0,0,0-.67,8.4l5,35a8.32,8.32,0,0,1-1.46,6.28A8.5,8.5,0,0,1,387.45,125a8.22,8.22,0,0,1-3.18-5.6L376.13,63a8.3,8.3,0,0,1,1.47-6.28A8.51,8.51,0,0,1,389.35,55a8.26,8.26,0,0,1,3.18,5.61l.85,5.88-2.11-.12a31.63,31.63,0,0,1,2.7-5.48,30.1,30.1,0,0,1,4.61-5.76A28.76,28.76,0,0,1,405,50.37,24,24,0,0,1,413.14,47.73Z"/><path class="cls-1" d="M546.11,106q-11.61,1.68-20.86-1.94a33.85,33.85,0,0,1-15-11.3,39,39,0,0,1-7.3-18.2q-1.77-12.3,2-21.69A35.59,35.59,0,0,1,516,37.64a34.1,34.1,0,0,1,16.41-7.11,31.34,31.34,0,0,1,13.6,1,36.29,36.29,0,0,1,12.14,6.27,38.87,38.87,0,0,1,9.25,10.45,35.68,35.68,0,0,1,4.81,13.54,7.1,7.1,0,0,1-1.83,5.7A8.78,8.78,0,0,1,565,70.34l-52.21,7.53-6.07-13.08,50.15-7.23-2.61,3.17L553.7,57a12.53,12.53,0,0,0-3.83-6.7,18.44,18.44,0,0,0-7-4.09,18.18,18.18,0,0,0-8.26-.69,26.4,26.4,0,0,0-7.5,2.2,14.85,14.85,0,0,0-5.62,4.58,18.07,18.07,0,0,0-3.09,7.56,35,35,0,0,0,.09,11.28,24.16,24.16,0,0,0,4.88,12.06,21.17,21.17,0,0,0,9,6.65,21.39,21.39,0,0,0,10.7,1.18,32.66,32.66,0,0,0,8-2,18.28,18.28,0,0,0,4.56-2.69c1.12-1,2.14-1.77,3.07-2.46a10.49,10.49,0,0,1,4.46-1.9,7,7,0,0,1,8,5.83q.52,3.69-2.86,7.24a32.09,32.09,0,0,1-9.22,6.71A40.22,40.22,0,0,1,546.11,106Z"/><path class="cls-1" d="M619.76,17.94q10.93-1.57,16.89,2.93a26.22,26.22,0,0,1,8.79,12.61l-2.5-.89.78-2.34a31.58,31.58,0,0,1,4.08-7.5,31.18,31.18,0,0,1,7.38-7.34,23.43,23.43,0,0,1,10.5-4.1q9.84-1.41,15.58,2.08a21.81,21.81,0,0,1,8.66,10.26A60.42,60.42,0,0,1,694.09,39l5,35a8.29,8.29,0,0,1-1.47,6.28A8.49,8.49,0,0,1,685.92,82a8.26,8.26,0,0,1-3.18-5.61l-5-35a28.45,28.45,0,0,0-2.26-8,11.29,11.29,0,0,0-4.8-5.24c-2.13-1.18-5-1.52-8.52-1a17.25,17.25,0,0,0-8.57,3.46,14.3,14.3,0,0,0-4.69,6.61,17.91,17.91,0,0,0-.68,8.4l5.05,35a8.29,8.29,0,0,1-1.47,6.28A8.5,8.5,0,0,1,640,88.61,8.26,8.26,0,0,1,636.82,83l-5-35a28.45,28.45,0,0,0-2.27-8,11.29,11.29,0,0,0-4.8-5.24c-2.13-1.18-5-1.52-8.52-1a17.31,17.31,0,0,0-8.56,3.46,14.32,14.32,0,0,0-4.7,6.61,17.78,17.78,0,0,0-.67,8.4l5,35a8.31,8.31,0,0,1-1.46,6.28,8.52,8.52,0,0,1-11.76,1.7,8.26,8.26,0,0,1-3.18-5.61l-8.14-56.44a8.29,8.29,0,0,1,1.47-6.28A8.5,8.5,0,0,1,596,25.2a8.26,8.26,0,0,1,3.18,5.61l.85,5.88-2.11-.12a30.92,30.92,0,0,1,2.7-5.48,30.05,30.05,0,0,1,4.61-5.75,28.8,28.8,0,0,1,6.43-4.77A23.79,23.79,0,0,1,619.76,17.94Z"/><path class="cls-1" d="M783.77,33.07a38.82,38.82,0,0,1-2.14,20.46,36.24,36.24,0,0,1-11.47,15.26,39.73,39.73,0,0,1-37.58,5.42,36.19,36.19,0,0,1-15.32-11.39,38.76,38.76,0,0,1-7.83-19,38.77,38.77,0,0,1,2.14-20.47A36.63,36.63,0,0,1,723,8a39.22,39.22,0,0,1,37.58-5.42A36.62,36.62,0,0,1,775.93,14,38.82,38.82,0,0,1,783.77,33.07Zm-16.4,2.36a25.24,25.24,0,0,0-4.54-11.69,21.25,21.25,0,0,0-8.67-6.91,20.69,20.69,0,0,0-20.91,3,21.07,21.07,0,0,0-6.37,9.07,25.17,25.17,0,0,0-1,12.5A24.74,24.74,0,0,0,730.35,53,21.12,21.12,0,0,0,739,59.89a20.69,20.69,0,0,0,20.91-3,20.94,20.94,0,0,0,6.36-9.08A24.69,24.69,0,0,0,767.37,35.43Z"/></g></g></svg>